<?xml version="1.0" encoding="utf-8"?>
<!-- Generator: Adobe Illustrator 22.0.1, SVG Export Plug-In . SVG Version: 6.00 Build 0)  -->
<svg version="1.1" id="Layer_1" xmlns="http://www.w3.org/2000/svg" xmlns:xlink="http://www.w3.org/1999/xlink" x="0px" y="0px"
	 viewBox="0 0 790 1000" style="enable-background:new 0 0 790 1000;" xml:space="preserve">
<style type="text/css">
	.st0{fill:#CECECE;}
	.st1{fill:#E8E8E8;}
	.st2{fill:none;stroke:#E8E8E8;stroke-width:9;stroke-linecap:round;stroke-miterlimit:10;}
</style>
<g>
	<rect class="st0" width="790" height="1000"/>
</g>
<g>
	<path class="st1" d="M409.6,210.4l38.7,119c2.1,6.3,7.9,10.6,14.6,10.6h125.1c14.8,0,21,19,9,27.7l-101.2,73.5
		c-5.4,3.9-7.6,10.8-5.6,17.1l38.7,119c4.6,14.1-11.6,25.9-23.6,17.1L404,521c-5.4-3.9-12.6-3.9-18,0l-101.2,73.5
		c-12,8.7-28.2-3-23.6-17.1l38.7-119c2.1-6.3-0.2-13.2-5.6-17.1l-101.2-73.5c-12-8.7-5.8-27.7,9-27.7h125.1
		c6.6,0,12.5-4.3,14.6-10.6l38.7-119C385,196.3,405,196.3,409.6,210.4z"/>
	<line class="st2" x1="395" y1="587" x2="395" y2="679"/>
	<line class="st2" x1="434.5" y1="587" x2="434.5" y2="642"/>
	<line class="st2" x1="360.5" y1="587" x2="360.5" y2="642"/>
</g>
</svg>
